<svg width="173" height="69" viewBox="0 0 173 69" fill="none" xmlns="http://www.w3.org/2000/svg">
<g clip-path="url(#clip0_317_1036)">
<mask id="mask0_317_1036" style="mask-type:luminance" maskUnits="userSpaceOnUse" x="0" y="-1" width="173" height="50">
<path d="M172.376 -0.00390625H0V48.1677H172.376V-0.00390625Z" fill="white"/>
</mask>
<g mask="url(#mask0_317_1036)">
<path fill-rule="evenodd" clip-rule="evenodd" d="M141.284 10.8466H161.416V16.5699H149.503V21.2202H159.748V26.5858H149.503V37.3171H141.284V10.8466ZM116.744 10.8466H124.844V30.7591H137.591V37.1978H116.744V10.8466ZM93.2756 24.0818C93.2756 26.705 93.7525 28.6128 94.7054 29.8052C95.6583 30.9975 97.0876 31.5937 98.7554 31.5937C100.543 31.5937 101.853 30.9975 102.806 29.9244C103.759 28.732 104.236 26.705 104.236 23.8433C104.236 21.3394 103.759 19.5508 102.687 18.3585C101.734 17.1661 100.304 16.6892 98.6364 16.6892C96.9686 16.6892 95.6583 17.2853 94.7054 18.4777C93.7525 19.4316 93.2756 21.4586 93.2756 24.0818ZM85.0562 24.0818C85.0562 19.7893 86.2475 16.4507 88.6298 14.066C91.0124 11.6813 94.348 10.4889 98.6364 10.4889C103.044 10.4889 106.38 11.6813 108.762 14.066C111.145 16.4507 112.336 19.6701 112.336 23.9626C112.336 27.0627 111.86 29.5667 110.787 31.5937C109.715 33.6207 108.286 35.0516 106.26 36.2439C104.355 37.3171 101.853 37.9132 98.8748 37.9132C95.8967 37.9132 93.3951 37.4363 91.4889 36.4824C89.5831 35.5285 87.9153 33.9784 86.724 31.9514C85.6516 29.6859 85.0562 27.182 85.0562 24.0818ZM68.7359 27.6589V22.174H81.3632V33.3822C78.9805 35.0516 76.8363 36.1247 74.9305 36.7208C73.0243 37.3171 70.8801 37.5555 68.3784 37.5555C65.2813 37.5555 62.6602 37.0786 60.7544 36.0054C58.7292 34.9323 57.2999 33.3823 56.2275 31.236C55.1556 29.0897 54.5598 26.705 54.5598 23.9626C54.5598 21.1009 55.1556 18.5969 56.3465 16.4507C57.5379 14.3044 59.2057 12.7544 61.5883 11.562C63.3751 10.7273 65.7577 10.2504 68.7359 10.2504C71.595 10.2504 73.8582 10.4889 75.288 11.0851C76.7173 11.562 77.9086 12.3967 78.8615 13.589C79.8144 14.6622 80.5293 16.093 81.0058 17.7623L73.1433 19.1932C72.7863 18.2392 72.3094 17.4046 71.4755 16.9277C70.7611 16.4507 69.6888 16.093 68.4974 16.093C66.7106 16.093 65.2813 16.6892 64.209 18.0008C63.1371 19.1932 62.6602 21.2202 62.6602 23.8433C62.6602 26.705 63.1371 28.732 64.209 29.9244C65.2813 31.1168 66.8297 31.7129 68.7359 31.7129C69.6888 31.7129 70.5226 31.5937 71.3565 31.3552C72.1904 31.1168 73.1433 30.6398 74.2156 30.0436V27.5397H68.7359V27.6589ZM24.8974 10.8466H32.5214L42.4089 25.3934V10.8466H50.0329V37.1978H42.2899L32.5214 22.7702V37.1978H24.8974V10.8466ZM10.8405 10.8466H19.0602V37.1978H10.8405V10.8466ZM5.47982 5.48094H166.896V42.6829H5.47982V5.48094ZM0 -0.00390625H172.376V48.1677H0V-0.00390625Z" fill="white"/>
</g>
</g>
<path d="M39.2466 58.827C40.6974 57.6616 42.7386 57.5431 44.4978 57.911C45.9286 58.1881 47.2514 59.1935 47.6307 60.6406C46.7811 60.8361 45.9208 60.9824 45.0667 61.1533C44.8185 60.4451 44.137 60.0002 43.4093 59.914C42.7433 59.8616 41.9955 59.8247 41.4312 60.2465C41.0134 60.539 40.9656 61.2688 41.4112 61.5582C41.883 61.8954 42.4704 62.0031 43.0239 62.1324C44.3174 62.3834 45.685 62.6467 46.7488 63.4734C47.993 64.4449 47.9159 66.454 46.9199 67.5717C46.001 68.5832 44.5703 68.9403 43.249 68.9773C41.7858 69.0389 40.221 68.7217 39.0939 67.7349C38.4942 67.2253 38.1242 66.5063 37.916 65.7596C38.7671 65.5626 39.6258 65.4148 40.483 65.2485C40.941 66.8096 43.0239 67.1853 44.322 66.4848C44.9711 66.1584 45.0467 65.1084 44.3344 64.8066C42.6878 64.0553 40.665 64.2093 39.2281 62.9715C37.9237 61.9847 37.9854 59.8247 39.2466 58.827Z" fill="white"/>
<path d="M99.0722 58.2103C100.617 57.5853 102.395 57.5745 103.97 58.101C105.142 58.4874 106.127 59.4358 106.443 60.6413C105.586 60.8291 104.727 61.0169 103.858 61.1324C103.619 60.3364 102.779 59.9285 101.997 59.8946C101.386 59.8638 100.706 59.873 100.208 60.2779C99.7984 60.6074 99.8045 61.331 100.286 61.5973C101.228 62.1624 102.372 62.1562 103.401 62.4749C104.444 62.7736 105.585 63.1923 106.169 64.1699C106.786 65.323 106.508 66.8795 105.548 67.7648C104.792 68.4945 103.739 68.8024 102.723 68.941C101.175 69.0872 99.4977 68.9117 98.2073 67.9711C97.4657 67.443 96.96 66.6378 96.7441 65.7603C97.6044 65.5802 98.4632 65.3677 99.3389 65.2799C99.7768 66.841 101.904 67.1828 103.172 66.4654C103.765 66.1467 103.859 65.1552 103.212 64.8412C101.844 64.1438 100.205 64.2469 98.8502 63.4941C97.8712 63.043 97.0386 62.09 97.1018 60.9569C97.0325 59.7175 97.9652 58.6476 99.0722 58.2103Z" fill="white"/>
<path d="M164.734 58.2103C166.279 57.5853 168.057 57.5745 169.632 58.101C170.804 58.4874 171.789 59.4358 172.105 60.6413C171.248 60.8291 170.389 61.0169 169.52 61.1324C169.281 60.3364 168.441 59.9285 167.659 59.8946C167.048 59.8638 166.369 59.873 165.871 60.2779C165.46 60.6074 165.467 61.331 165.948 61.5973C166.89 62.1624 168.034 62.1562 169.064 62.4749C170.106 62.7736 171.247 63.1923 171.831 64.1699C172.448 65.323 172.17 66.8795 171.21 67.7648C170.454 68.4945 169.401 68.8024 168.385 68.941C166.837 69.0872 165.16 68.9117 163.869 67.9711C163.128 67.443 162.622 66.6378 162.406 65.7603C163.267 65.5802 164.125 65.3677 165.001 65.2799C165.439 66.841 167.567 67.1828 168.834 66.4654C169.427 66.1467 169.521 65.1552 168.874 64.8412C167.506 64.1438 165.868 64.2469 164.512 63.4941C163.533 63.043 162.701 62.09 162.764 60.9569C162.695 59.7175 163.627 58.6476 164.734 58.2103Z" fill="white"/>
<path d="M144.721 58.6907C146.147 57.6253 148.117 57.4821 149.775 58.0317C151.096 58.4659 152.104 59.5821 152.553 60.8799C151.685 61.1062 150.831 61.3802 149.958 61.5896C149.748 60.9045 149.283 60.2487 148.575 60.0224C147.695 59.6806 146.588 60.0439 146.128 60.8784C145.624 61.7313 145.544 62.7612 145.576 63.7311C145.63 64.5625 145.783 65.4462 146.327 66.1082C146.899 66.8179 147.98 67.015 148.783 66.5978C149.403 66.2914 149.775 65.6494 149.952 65.0043C150.831 65.1906 151.686 65.4693 152.562 65.6725C152.151 67.0735 151.071 68.3021 149.651 68.7301C147.59 69.372 144.986 68.8686 143.743 66.9796C142.826 65.6386 142.652 63.9405 142.807 62.3625C142.972 60.9676 143.568 59.5513 144.721 58.6907Z" fill="white"/>
<path d="M0 57.8896C0.921974 57.8896 1.84395 57.8896 2.76592 57.8896C2.76592 61.5338 2.76592 65.1763 2.76592 68.8204C1.84395 68.8204 0.921974 68.8204 0 68.8204C0 65.1763 0 61.5338 0 57.8896Z" fill="white"/>
<path d="M4.80537 57.8902C5.7551 57.8887 6.70482 57.8918 7.65455 57.8887C9.07143 60.1441 10.587 62.341 11.8882 64.6673C11.8543 62.4088 11.879 60.1487 11.8713 57.8902C12.7285 57.8918 13.5857 57.8856 14.4429 57.8933C14.4414 61.5343 14.4414 65.1769 14.4429 68.8179C13.5533 68.8256 12.6653 68.8195 11.7772 68.821C10.2987 66.4824 8.76616 64.1731 7.35853 61.7914C7.37086 64.1346 7.36316 66.4778 7.3647 68.821C6.5121 68.821 5.65797 68.821 4.80537 68.821C4.80537 65.1769 4.80383 61.5343 4.80537 57.8902Z" fill="white"/>
<path d="M16.4951 57.8906C18.06 57.8937 19.6264 57.886 21.1913 57.8921C22.508 57.9768 23.8863 58.3694 24.8314 59.3378C25.8659 60.3569 26.2452 61.8642 26.2283 63.2775C26.2668 64.7416 25.906 66.3134 24.833 67.3727C23.8925 68.341 22.5172 68.7321 21.2037 68.8183C19.6341 68.8275 18.0646 68.8183 16.4951 68.8214C16.4951 65.1773 16.4951 61.5347 16.4951 57.8906ZM19.2564 60.0521C19.2657 62.2567 19.2595 64.4598 19.2595 66.6645C20.3017 66.6598 21.4488 66.763 22.3631 66.1626C23.2357 65.5622 23.4223 64.4136 23.4176 63.4299C23.43 62.4353 23.3035 61.273 22.4571 60.6156C21.5398 59.9428 20.3341 60.0475 19.2564 60.0521Z" fill="white"/>
<path d="M27.5528 57.89C28.4717 57.8961 29.3905 57.8761 30.3094 57.9038C30.2447 58.9261 30.2709 59.953 30.3017 60.9783C30.274 62.31 30.2293 63.6479 30.3279 64.9781C30.3526 65.5862 30.59 66.2497 31.1482 66.5653C31.8466 66.9425 32.7948 66.9133 33.4192 66.3975C33.9449 65.9218 34.0266 65.1643 34.0436 64.4962C34.0513 62.2946 34.0451 60.0931 34.0467 57.89C34.964 57.8915 35.8814 57.8854 36.7987 57.8931C36.7956 60.147 36.7987 62.4024 36.7972 64.6563C36.7555 65.8956 36.3655 67.2181 35.3649 68.0217C34.2101 68.967 32.6144 69.0871 31.1867 68.9255C30.1275 68.7884 29.0683 68.322 28.4177 67.449C27.784 66.6161 27.5389 65.5446 27.5512 64.5116C27.5543 62.3054 27.5528 60.0977 27.5528 57.89Z" fill="white"/>
<path d="M48.1787 57.8969C51.3054 57.88 54.4321 57.9 57.5588 57.8877C57.6127 58.6067 57.6081 59.3287 57.5665 60.0477C56.4626 60.0461 55.3602 60.0431 54.2579 60.0492C54.2625 62.9728 54.2579 65.898 54.2594 68.8216C53.3374 68.8216 52.4155 68.8216 51.4935 68.8216C51.4935 65.8964 51.492 62.9713 51.4935 60.0477C50.3788 60.0292 49.2626 60.0831 48.1494 60.0154C48.171 59.3087 48.1402 58.602 48.1787 57.8969Z" fill="white"/>
<path d="M58.8496 57.8901C60.5872 57.8916 62.3247 57.8886 64.0623 57.8901C65.1662 57.9409 66.3457 58.3073 67.0472 59.2126C67.7224 60.047 67.8227 61.197 67.6577 62.2224C67.4773 63.2523 66.7218 64.1083 65.7721 64.5148C66.5831 65.9481 67.3817 67.3891 68.1958 68.8194C67.1767 68.8224 66.1576 68.8224 65.1385 68.8194C64.4894 67.5015 63.7971 66.2037 63.1558 64.8827C62.6423 64.8627 62.1305 64.8689 61.6186 64.8689C61.6186 66.1852 61.6186 67.5015 61.6202 68.8178C60.6951 68.8255 59.7731 68.8194 58.8496 68.8209C58.8496 65.1768 58.8496 61.5342 58.8496 57.8901ZM61.6186 59.9439C61.6186 60.9015 61.6186 61.8591 61.6186 62.8166C62.425 62.7735 63.2606 62.9229 64.0469 62.6935C65.1878 62.4087 65.2294 60.5104 64.1517 60.1147C63.3331 59.8592 62.462 59.9639 61.6186 59.9439Z" fill="white"/>
<path d="M69.3799 57.8896C70.3019 57.8896 71.2238 57.8896 72.1458 57.8896C72.1458 61.5338 72.1458 65.1763 72.1458 68.8204C71.2238 68.8204 70.3019 68.8204 69.3799 68.8204C69.3799 65.1763 69.3799 61.5338 69.3799 57.8896Z" fill="white"/>
<path d="M76.8271 57.8896C77.82 57.8896 78.8144 57.8896 79.8089 57.8896C81.1255 61.5291 82.4145 65.1779 83.7265 68.8204C82.7583 68.8204 81.79 68.8189 80.8218 68.8204C80.6198 68.1646 80.4132 67.5118 80.2298 66.8498C78.9332 66.8144 77.6365 66.8437 76.3384 66.8329C76.1379 67.4872 75.9236 68.1384 75.7587 68.802C74.8166 68.842 73.8746 68.8112 72.9326 68.8204C74.2308 65.1779 75.5351 61.5353 76.8271 57.8896ZM76.932 64.8161C77.8215 64.8176 78.7111 64.8207 79.6023 64.8145C79.1752 63.3412 78.5246 61.9217 78.3087 60.3945C77.9187 61.8863 77.4099 63.3474 76.932 64.8161Z" fill="white"/>
<path d="M84.5839 57.8906C85.509 57.8968 86.4356 57.8752 87.3606 57.9045C87.2743 60.8188 87.3406 63.7378 87.3175 66.6537C88.9317 66.6799 90.5475 66.6599 92.1617 66.666C92.1617 67.385 92.1617 68.1024 92.1617 68.8214C89.6209 68.8122 87.0785 68.8399 84.5361 68.8076C84.6302 65.1696 84.53 61.5286 84.5839 57.8906Z" fill="white"/>
<path d="M107.88 57.8902C110.586 57.8887 113.293 57.8933 115.999 57.8887C116.053 58.5969 116.016 59.3066 116.039 60.0163C114.243 60.0841 112.445 60.0256 110.649 60.0456C110.649 60.7122 110.649 61.3788 110.649 62.047C112.124 62.047 113.598 62.0485 115.075 62.0455C115.128 62.7536 115.092 63.4649 115.112 64.1747C113.626 64.2362 112.137 64.1854 110.649 64.2024C110.649 65.0229 110.649 65.8435 110.649 66.6656C112.485 66.6656 114.32 66.6672 116.158 66.6641C116.205 67.3723 116.17 68.082 116.193 68.7918C113.423 68.8595 110.65 68.8025 107.88 68.821C107.88 65.1769 107.88 61.5343 107.88 57.8902Z" fill="white"/>
<path d="M117.663 57.8902C119.375 57.8902 121.086 57.8902 122.797 57.8887C123.843 57.9256 124.951 58.2258 125.69 59.0079C126.585 59.9455 126.733 61.3973 126.379 62.5997C126.117 63.4757 125.415 64.1516 124.592 64.518C125.409 65.9467 126.195 67.3939 127.022 68.8195C125.992 68.8102 124.962 68.8472 123.934 68.7979C123.306 67.4739 122.609 66.1853 121.962 64.8721C121.45 64.8674 120.94 64.869 120.429 64.8705C120.428 66.1868 120.428 67.5047 120.429 68.821C119.507 68.821 118.584 68.821 117.663 68.821C117.662 65.1769 117.662 61.5343 117.663 57.8902ZM120.428 59.9455C120.429 60.9031 120.428 61.8592 120.429 62.8168C121.416 62.7306 122.595 63.08 123.417 62.3703C123.94 61.6944 123.836 60.3673 122.901 60.0887C122.096 59.8716 121.251 59.9578 120.428 59.9455Z" fill="white"/>
<path d="M126.868 57.8902C127.87 57.9025 128.872 57.8625 129.873 57.9133C130.271 59.3635 130.764 60.7861 131.199 62.2271C131.575 63.4988 132.067 64.7489 132.232 66.0729C132.869 63.3002 133.846 60.6183 134.645 57.8902C135.599 57.8902 136.554 57.8902 137.508 57.8902C136.225 61.5158 134.964 65.1507 133.677 68.7748C132.69 68.8764 131.671 68.8102 130.673 68.8025C129.431 65.1569 128.139 61.5266 126.868 57.8902Z" fill="white"/>
<path d="M138.478 57.8896C139.398 57.8896 140.322 57.8896 141.244 57.8896C141.242 61.5338 141.242 65.1763 141.244 68.8204C140.322 68.8204 139.398 68.8204 138.478 68.8204C138.476 65.1763 138.476 61.5338 138.478 57.8896Z" fill="white"/>
<path d="M153.824 57.8908C156.53 57.8892 159.236 57.8939 161.943 57.8877C161.989 58.6067 161.988 59.3287 161.948 60.0477C160.162 60.0446 158.377 60.0461 156.593 60.0461C156.593 60.7128 156.593 61.3794 156.593 62.0476C158.066 62.046 159.54 62.0506 161.013 62.0445C161.066 62.7634 161.064 63.4855 161.02 64.2045C159.544 64.2014 158.069 64.2029 156.593 64.2029C156.593 65.0235 156.593 65.8456 156.593 66.6662C158.44 66.6862 160.29 66.6262 162.137 66.697C162.113 67.4052 162.153 68.1165 162.096 68.8247C159.338 68.817 156.581 68.8231 153.824 68.8216C153.824 65.1775 153.824 61.5349 153.824 57.8908Z" fill="white"/>
<defs>
<clipPath id="clip0_317_1036">
<rect width="172.5" height="48.5605" fill="white" transform="translate(0 -0.00390625)"/>
</clipPath>
</defs>
</svg>
