<svg width="143" height="91" viewBox="0 0 143 91" fill="none" xmlns="http://www.w3.org/2000/svg">
<path d="M124.448 22.5013H142.663L140.842 32.2977H133.404L131.658 41.5584H138.261L136.591 50.8192H129.989L122.93 91H112.077L124.448 22.5013ZM120.578 22.5013H109.497L102.818 58.5492C102.363 60.9983 101.983 62.529 101.68 63.2944C101.3 63.9066 100.845 64.2128 100.086 64.2128C99.4787 64.2128 99.0992 63.9066 99.0233 63.3709C98.9474 62.7586 99.0992 61.381 99.4787 59.238L106.309 22.5013H95.1527L89.7641 51.508C88.7775 57.0185 88.0944 60.6156 87.9426 62.3759C87.8667 64.1362 88.0944 65.7435 88.7775 67.3507C89.3846 68.9579 90.6748 70.1825 92.4204 71.1009C94.2419 72.0959 96.2911 72.6316 98.8715 72.6316C101.224 72.6316 103.273 72.2489 105.095 71.4071C106.992 70.6417 108.51 69.3406 109.876 67.8099C111.167 66.2027 112.153 64.672 112.609 63.1413C113.14 61.6871 113.671 59.0849 114.43 55.2582L120.578 22.5013ZM75.2681 54.0336C75.7235 48.4466 76.4065 41.7115 77.4691 33.5223C74.5851 42.8595 72.6118 49.5946 71.6251 54.0336H75.2681ZM86.5765 22.5013L83.1612 71.5601H72.9154L73.9779 62.6821H70.1072L67.7545 71.5601H56.7497L72.3082 22.5013H86.5765ZM63.5043 22.5013H54.1692L50.1468 44.6198L47.9458 22.5013H38.6107L29.5033 71.5601H38.8384L42.9367 49.2119L44.6064 71.5601H54.321L63.5043 22.5013ZM33.6775 22.8839L24.4942 45.0791L26.7711 71.5601H16.5252L14.6278 54.0336L11.3643 71.5601H0.663086L11.8197 0H22.5209L17.0565 39.1093L23.8111 22.8074L33.6775 22.8839Z" fill="#7C7D8D"/>
</svg>
