<svg width="92" height="93" viewBox="0 0 92 93" fill="none" xmlns="http://www.w3.org/2000/svg">
<path d="M91.6516 0.842773H0.336914V92.1575H91.6516V0.842773Z" fill="#7C7D8D"/>
<path d="M76.9042 9.93906C74.8057 9.93906 73.2165 11.3313 72.4248 13.0043L60.9271 31.9333C60.1298 33.6839 59.5479 35.6507 59.5479 36.9525C59.5479 38.1159 59.7074 39.1438 60.1337 40.0911L72.5712 69.8035H24.2737C22.5352 69.8035 21.1003 68.0572 21.1003 66.4451V15.2636C20.7349 8.26666 10.6785 8.27043 10.457 15.4834L10.6767 69.8035C10.6767 75.709 15.2422 80.4403 21.1003 80.4403H86.9494L70.8991 39.3706C70.4561 37.8415 70.2588 36.4549 71.3385 34.6322L81.9573 17.3641C82.1068 17.004 82.3235 15.4814 82.3235 15.0438C82.1131 11.9082 79.656 9.80056 76.9042 9.93906ZM50.8331 9.96348C48.2501 9.9808 45.6701 11.7651 45.6701 15.2636V51.8881C45.6701 57.2064 38.5177 56.7688 38.5177 51.8881V15.2636C38.5177 8.26666 28.1673 8.26666 28.1673 15.2636V52.1812C28.1673 60.6241 34.4716 66.2375 41.9962 66.2375C49.7258 66.2375 56.0083 60.6241 56.0083 52.1812V15.2636C56.0083 11.6959 53.4161 9.94617 50.8331 9.96348Z" fill="#F4F4F4"/>
</svg>
