<svg width="345" height="59" viewBox="0 0 345 59" fill="none" xmlns="http://www.w3.org/2000/svg">
<g clip-path="url(#clip0_317_945)">
<path d="M58.2754 47.1996L46.6213 58.997L3.5103 59L0 55.445V11.7998L11.6558 0H54.7656L58.2754 3.55325V47.1996Z" fill="#7C7D8D"/>
<path d="M54.7655 0L41.6582 13.2698V32.6388L30.9211 17.7014H8.28802V22.3953H14.9597V40.3001L0.000976562 55.445V59L3.5101 58.997L19.9873 42.3155V22.3953H26.6566V41.298H31.6201V26.3601L42.3578 41.298H46.6212V15.3518L58.2758 3.55325L58.2752 0H54.7655Z" fill="white"/>
<path d="M76.9231 23.4322H69.9307V17.7012H90.3775V23.4322H83.3856V41.2977H76.9237L76.9231 23.4322Z" fill="#7C7D8D"/>
<path d="M93.7744 17.7021H112.521V23.2619H100.168V26.8389H111.355V31.9978H100.168V35.7378H112.688V41.2993H93.7744V17.7021Z" fill="#7C7D8D"/>
<path d="M123.324 29.2985L115.663 17.7021H123.091L127.219 24.3424L131.384 17.7021H138.64L130.984 29.2313L138.976 41.2987H131.549L127.084 34.1868L122.591 41.2987H115.331L123.324 29.2985Z" fill="#7C7D8D"/>
<path d="M142.03 17.7021H148.49V26.5344H156.783V17.7021H163.243V41.2987H156.783V32.3308H148.49V41.2987H142.03V17.7021Z" fill="#7C7D8D"/>
<path d="M167.123 29.5005C167.123 22.7228 172.518 17.2285 179.712 17.2285C186.903 17.2285 192.231 22.6568 192.231 29.5005C192.231 36.2769 186.836 41.7718 179.645 41.7718C172.449 41.7724 167.123 36.3423 167.123 29.5005ZM185.637 29.5005C185.637 26.0947 183.207 23.1266 179.645 23.1266C176.112 23.1266 173.749 26.0263 173.749 29.5005C173.749 32.9062 176.181 35.869 179.711 35.869C183.271 35.8695 185.637 32.9728 185.637 29.5005Z" fill="#7C7D8D"/>
<path d="M196.14 17.7021H202.603V26.5344H210.892V17.7021H217.355V41.2987H210.892V32.3308H202.603V41.2987H196.14V17.7021Z" fill="#7C7D8D"/>
<path d="M222.381 17.7021H228.776V30.9827L237.802 17.7021H243.827V41.2987H237.433V28.0176L228.408 41.2987H222.381V17.7021Z" fill="#7C7D8D"/>
<path d="M248.855 17.7021H255.313V27.2772L263.34 17.7021H270.999L262.175 27.8481L271.297 41.2993H263.54L257.68 32.536L255.313 35.1972V41.2999H248.855V17.7021Z" fill="#7C7D8D"/>
<path d="M271.348 29.5005C271.348 22.7228 276.74 17.2285 283.932 17.2285C291.125 17.2285 296.455 22.6568 296.455 29.5005C296.455 36.2769 291.058 41.7718 283.867 41.7718C276.674 41.7724 271.348 36.3423 271.348 29.5005ZM289.858 29.5005C289.858 26.0947 287.431 23.1266 283.868 23.1266C280.335 23.1266 277.974 26.0263 277.974 29.5005C277.974 32.9062 280.402 35.869 283.933 35.869C287.496 35.8695 289.858 32.9728 289.858 29.5005Z" fill="#7C7D8D"/>
<path d="M325.318 17.7021H331.777V25.1161H335.308C340.903 25.1161 345 27.8154 345 33.1384C345 38.2325 341.337 41.2993 335.642 41.2993H325.318V17.7021ZM335.143 35.805C337.272 35.805 338.538 34.8267 338.538 32.9731C338.538 31.3217 337.272 30.2423 335.174 30.2423H331.777V35.805H335.143Z" fill="#7C7D8D"/>
<path d="M302.174 17.7021V28.0539C302.174 30.5004 301.929 34.0394 300.335 35.2912C299.586 35.8775 298.35 36.3271 297.567 36.3271V41.8904H298.18C300.414 41.8904 302.917 40.9811 303.878 40.3633C307.775 37.859 308.256 33.0956 308.256 27.7149V23.4325H313.832V41.2981H320.292V17.7021H302.174Z" fill="#7C7D8D"/>
</g>
<defs>
<clipPath id="clip0_317_945">
<rect width="345" height="59" fill="white"/>
</clipPath>
</defs>
</svg>
