<svg width="219" height="69" viewBox="0 0 219 69" fill="none" xmlns="http://www.w3.org/2000/svg">
<path d="M6.62559 48.4053C12.4334 48.4053 15.4874 42.5968 18.1534 34.7348H18.5831C17.5065 41.5276 17.8507 48.4053 24.2615 48.4053C30.0254 48.4053 32.7791 42.553 35.1885 34.7348H35.6183C34.5003 41.3993 34.8005 48.4053 41.3821 48.4053C47.1461 48.4053 50.3734 42.6815 51.6208 34.7786H47.578C47.1044 36.5289 46.2868 38.238 44.7828 38.238C41.6433 38.238 43.3643 33.0258 44.739 26.4901L46.7186 17.0062H37.0391C37.0391 17.0062 31.9197 38.238 27.8769 38.238C24.9083 38.238 26.3706 32.4294 27.6182 26.4051L29.5541 17.0062H19.8744C18.0679 24.0536 14.2399 38.238 10.6684 38.238C9.50638 38.238 9.20605 37.5108 9.20605 36.5724C9.20605 35.9738 9.37701 35.3337 9.59416 34.7786H0.732325C0.258739 36.6574 0 38.4513 0 40.2888C0 44.9022 1.72108 48.4053 6.62559 48.4053ZM56.9551 48.4053C59.4939 48.4053 61.5153 46.4392 61.5153 43.9203C61.5153 41.4015 59.4939 39.4354 56.9551 39.4354C54.4163 39.4354 52.3948 41.4015 52.3948 43.9203C52.3948 46.4392 54.4163 48.4053 56.9551 48.4053ZM83.1525 38.1967C83.1525 40.3324 81.5608 41.273 79.7981 41.273H73.6045V35.0354H79.8419C81.8218 35.0354 83.1525 36.2306 83.1525 38.1967ZM73.6022 23.5008H79.2805C80.9162 23.5008 82.2053 24.3977 82.2053 26.2765C82.2053 28.1554 80.699 29.0525 79.2805 29.0525H73.6022V23.4985V23.5008ZM85.6034 31.6608C87.9276 30.7639 90.2492 28.713 90.2492 24.8268C90.2492 19.8716 86.5068 17.0086 80.743 17.0086H65.6875V47.7652H80.9162C86.7655 47.7652 91.1964 44.9457 91.1964 39.2221C91.1964 35.2074 88.7869 32.5577 85.6034 31.576V31.6608ZM210.956 32.4294C210.956 36.7857 208.117 40.7154 202.953 40.7154C197.79 40.7154 194.736 36.8707 194.736 32.3421C194.736 27.8136 197.575 24.0559 202.736 24.0559C207.897 24.0559 210.954 27.9008 210.954 32.4294H210.956ZM186.695 32.3857C186.695 41.6561 193.75 48.4053 202.868 48.4053C211.986 48.4053 219 41.5713 219 32.3857C219 23.2002 211.947 16.3662 202.829 16.3662C193.711 16.3662 186.695 23.2002 186.695 32.3857ZM145.913 24.4827V40.2888H136.536C137.869 37.4258 138.516 31.9155 138.516 24.8245V24.4827H145.913ZM153.828 40.2888V17.0062H131.072V19.3554C131.072 29.9059 130.557 37.8939 128.148 40.2866H124.92V52.6311H132.835V47.7607H150.429V52.6311H158.344V40.2866L153.828 40.2888ZM169.486 40.2888V35.7603H182.479V28.713H169.486V24.485H183.682V17.0062H161.571V47.7629H184.156V40.2866L169.486 40.2888ZM114.083 17.0062L102.771 34.478V17.0062H94.8557V47.7629H102.771L114.083 30.2913V47.7629H121.998V17.0062H114.083Z" fill="#7C7D8D"/>
</svg>
