<svg width="40" height="20" viewBox="0 0 40 20" fill="none" xmlns="http://www.w3.org/2000/svg">
<path d="M4.30826 20C8.08473 20 10.0706 16.3002 11.8041 11.2924H12.0835C11.3835 15.6191 11.6074 20 15.776 20C19.5238 20 21.3144 16.2723 22.8812 11.2924H23.1606C22.4336 15.5374 22.6288 20 26.9085 20C30.6565 20 32.7551 16.3542 33.5662 11.3203H30.9373C30.6294 12.4352 30.0978 13.5238 29.1198 13.5238C27.0784 13.5238 28.1974 10.2038 29.0913 6.04082L30.3786 0H24.0845C24.0845 0 20.7556 13.5238 18.1268 13.5238C16.1965 13.5238 17.1473 9.82395 17.9586 5.98668L19.2174 0H12.9233C11.7486 4.4889 9.25944 13.5238 6.93706 13.5238C6.18148 13.5238 5.98619 13.0606 5.98619 12.4629C5.98619 12.0816 6.09735 11.6739 6.23856 11.3203H0.47619C0.168244 12.517 0 13.6596 0 14.8301C0 17.7686 1.11912 20 4.30826 20ZM37.0347 20C38.6856 20 40 18.7477 40 17.1432C40 15.5389 38.6856 14.2865 37.0347 14.2865C35.3839 14.2865 34.0695 15.5389 34.0695 17.1432C34.0695 18.7477 35.3839 20 37.0347 20Z" fill="#E7221F"/>
</svg>
