<svg width="36" height="38" viewBox="0 0 36 38" fill="none" xmlns="http://www.w3.org/2000/svg">
<path d="M1 13.7392V24.2608C1 28.1138 0.999999 28.1138 4.77778 30.5695L15.1667 36.349C16.7261 37.217 19.2739 37.217 20.8333 36.349L31.2222 30.5695C35 28.1138 35 28.1138 35 24.2608V13.7392C35 9.88621 35 9.88621 31.2222 7.43046L20.8333 1.65098C19.2739 0.783005 16.7261 0.783005 15.1667 1.65098L4.77778 7.43046C0.999999 9.88621 1 9.88621 1 13.7392Z" stroke="#1F1F1F" stroke-width="2" stroke-linecap="round" stroke-linejoin="round"/>
<path d="M19.356 12.9038L20.5732 14.89C20.7654 15.2025 21.1925 15.5149 21.5128 15.6042L23.691 16.1844C25.0363 16.5415 25.3994 17.7466 24.5238 18.8624L23.0931 20.6701C22.8795 20.9602 22.7087 21.4735 22.73 21.8305L22.8582 24.1738C22.9436 25.6244 21.9613 26.3609 20.68 25.8253L18.5873 24.9549C18.2669 24.821 17.7331 24.821 17.4127 24.9549L15.32 25.8253C14.0387 26.3609 13.0564 25.6021 13.1418 24.1738L13.27 21.8305C13.2913 21.4735 13.1205 20.9379 12.9069 20.6701L11.4762 18.8624C10.6006 17.7466 10.9637 16.5415 12.309 16.1844L14.4872 15.6042C14.8288 15.5149 15.2559 15.1801 15.4268 14.89L16.644 12.9038C17.4127 11.6987 18.6086 11.6987 19.356 12.9038Z" stroke="#1F1F1F" stroke-width="2" stroke-linecap="round" stroke-linejoin="round"/>
</svg>
