<svg width="22" height="58" viewBox="0 0 22 58" fill="none" xmlns="http://www.w3.org/2000/svg">
<path d="M6 5.25V1L2.17298 6.74053C0.822848 8.76573 0.621636 11.3469 1.64162 13.5568L2.6263 15.6903C2.87348 16.2259 3.21348 16.7135 3.63057 17.1306L6.5 20V40.5C7.69631 45.1523 14.3037 45.1523 15.5 40.5V20.5V20L18.1494 16.9091C18.3824 16.6371 18.5856 16.341 18.7554 16.0256L19.9207 13.8616C21.1924 11.4998 21.0026 8.61904 19.4321 6.44448L15.5 1V5.25C15.5 7.87335 13.3734 10 10.75 10C8.12665 10 6 7.87335 6 5.25Z" stroke="#1F1F1F" stroke-width="2" stroke-linejoin="round"/>
<circle cx="11" cy="39" r="1" stroke="#1F1F1F" stroke-width="2"/>
</svg>
