<svg width="150" height="43" viewBox="0 0 150 43" fill="none" xmlns="http://www.w3.org/2000/svg">
<mask id="mask0_317_674" style="mask-type:luminance" maskUnits="userSpaceOnUse" x="0" y="0" width="150" height="42">
<path d="M149.892 0H0V41.8884H149.892V0Z" fill="white"/>
</mask>
<g mask="url(#mask0_317_674)">
<path fill-rule="evenodd" clip-rule="evenodd" d="M122.855 9.43522H140.362V14.412H130.003V18.4557H138.912V23.1215H130.003V32.453H122.855V9.43522ZM101.516 9.43522H108.56V26.7504H119.644V32.3493H101.516V9.43522ZM81.1093 20.9441C81.1093 23.2251 81.5239 24.8841 82.3525 25.9209C83.1811 26.9578 84.424 27.4762 85.8743 27.4762C87.4284 27.4762 88.5678 26.9578 89.3964 26.0246C90.225 24.9878 90.6397 23.2251 90.6397 20.7367C90.6397 18.5594 90.225 17.0041 89.2929 15.9673C88.4643 14.9304 87.221 14.5157 85.7708 14.5157C84.3206 14.5157 83.1811 15.0341 82.3525 16.071C81.5239 16.9004 81.1093 18.6631 81.1093 20.9441ZM73.9619 20.9441C73.9619 17.2115 74.9978 14.3083 77.0694 12.2347C79.1412 10.161 82.0417 9.12418 85.7708 9.12418C89.6037 9.12418 92.5042 10.161 94.5757 12.2347C96.6476 14.3083 97.6835 17.1078 97.6835 20.8404C97.6835 23.5362 97.2692 25.7136 96.3368 27.4762C95.4047 29.2388 94.1614 30.483 92.4004 31.5198C90.7431 32.453 88.5678 32.9714 85.9781 32.9714C83.3885 32.9714 81.2131 32.5567 79.5555 31.7272C77.8983 30.8977 76.4481 29.5499 75.4121 27.7872C74.4797 25.8172 73.9619 23.6399 73.9619 20.9441ZM59.7703 24.0546V19.2852H70.7506V29.0314C68.6787 30.483 66.8142 31.4162 65.157 31.9346C63.4994 32.453 61.6349 32.6604 59.4595 32.6604C56.7663 32.6604 54.4871 32.2456 52.8299 31.3125C51.0689 30.3793 49.826 29.0314 48.8935 27.1651C47.9614 25.2988 47.4433 23.2251 47.4433 20.8404C47.4433 18.352 47.9614 16.1746 48.997 14.3083C50.0329 12.442 51.4832 11.0941 53.555 10.0573C55.1088 9.33153 57.1806 8.9168 59.7703 8.9168C62.2565 8.9168 64.2245 9.12418 65.4678 9.6426C66.7107 10.0573 67.7466 10.7831 68.5752 11.8199C69.4038 12.7531 70.0255 13.9973 70.4398 15.4489L63.6029 16.6931C63.2924 15.8636 62.8778 15.1378 62.1526 14.7231C61.5314 14.3083 60.5989 13.9973 59.563 13.9973C58.0093 13.9973 56.7663 14.5157 55.8339 15.6562C54.9018 16.6931 54.4871 18.4557 54.4871 20.7367C54.4871 23.2251 54.9018 24.9878 55.8339 26.0246C56.7663 27.0614 58.1127 27.5799 59.7703 27.5799C60.5989 27.5799 61.324 27.4762 62.0492 27.2688C62.7743 27.0614 63.6029 26.6467 64.5353 26.1283V23.9509H59.7703V24.0546ZM21.6499 9.43522H28.2795L36.8773 22.0846V9.43522H43.5069V32.3493H36.7738L28.2795 19.8036V32.3493H21.6499V9.43522ZM9.42649 9.43522H16.5741V32.3493H9.42649V9.43522ZM4.76506 4.76943H145.127V37.1189H4.76506V4.76943ZM0 0H149.892V41.8884H0V0Z" fill="#B4100D"/>
</g>
</svg>
