<svg width="150" height="60" viewBox="0 0 150 60" fill="none" xmlns="http://www.w3.org/2000/svg">
<mask id="mask0_317_673" style="mask-type:luminance" maskUnits="userSpaceOnUse" x="0" y="0" width="150" height="42">
<path d="M149.892 0H0V41.8884H149.892V0Z" fill="white"/>
</mask>
<g mask="url(#mask0_317_673)">
<path fill-rule="evenodd" clip-rule="evenodd" d="M122.855 9.43522H140.362V14.412H130.003V18.4557H138.912V23.1215H130.003V32.453H122.855V9.43522ZM101.516 9.43522H108.56V26.7504H119.644V32.3493H101.516V9.43522ZM81.1093 20.9441C81.1093 23.2251 81.5239 24.8841 82.3525 25.9209C83.1811 26.9578 84.424 27.4762 85.8743 27.4762C87.4284 27.4762 88.5678 26.9578 89.3964 26.0246C90.225 24.9878 90.6397 23.2251 90.6397 20.7367C90.6397 18.5594 90.225 17.0041 89.2929 15.9673C88.4643 14.9304 87.221 14.5157 85.7708 14.5157C84.3206 14.5157 83.1811 15.0341 82.3525 16.071C81.5239 16.9004 81.1093 18.6631 81.1093 20.9441ZM73.9619 20.9441C73.9619 17.2115 74.9978 14.3083 77.0694 12.2347C79.1412 10.161 82.0417 9.12418 85.7708 9.12418C89.6037 9.12418 92.5042 10.161 94.5757 12.2347C96.6476 14.3083 97.6835 17.1078 97.6835 20.8404C97.6835 23.5362 97.2692 25.7136 96.3368 27.4762C95.4047 29.2388 94.1614 30.483 92.4004 31.5198C90.7431 32.453 88.5678 32.9714 85.9781 32.9714C83.3885 32.9714 81.2131 32.5567 79.5555 31.7272C77.8983 30.8977 76.4481 29.5499 75.4121 27.7872C74.4797 25.8172 73.9619 23.6399 73.9619 20.9441ZM59.7703 24.0546V19.2852H70.7506V29.0314C68.6787 30.483 66.8142 31.4162 65.157 31.9346C63.4994 32.453 61.6349 32.6604 59.4595 32.6604C56.7663 32.6604 54.4871 32.2456 52.8299 31.3125C51.0689 30.3793 49.826 29.0314 48.8935 27.1651C47.9614 25.2988 47.4433 23.2251 47.4433 20.8404C47.4433 18.352 47.9614 16.1746 48.997 14.3083C50.0329 12.442 51.4832 11.0941 53.555 10.0573C55.1088 9.33153 57.1806 8.9168 59.7703 8.9168C62.2565 8.9168 64.2245 9.12418 65.4678 9.6426C66.7107 10.0573 67.7466 10.7831 68.5752 11.8199C69.4038 12.7531 70.0255 13.9973 70.4398 15.4489L63.6029 16.6931C63.2924 15.8636 62.8778 15.1378 62.1526 14.7231C61.5314 14.3083 60.5989 13.9973 59.563 13.9973C58.0093 13.9973 56.7663 14.5157 55.8339 15.6562C54.9018 16.6931 54.4871 18.4557 54.4871 20.7367C54.4871 23.2251 54.9018 24.9878 55.8339 26.0246C56.7663 27.0614 58.1127 27.5799 59.7703 27.5799C60.5989 27.5799 61.324 27.4762 62.0492 27.2688C62.7743 27.0614 63.6029 26.6467 64.5353 26.1283V23.9509H59.7703V24.0546ZM21.6499 9.43522H28.2795L36.8773 22.0846V9.43522H43.5069V32.3493H36.7738L28.2795 19.8036V32.3493H21.6499V9.43522ZM9.42649 9.43522H16.5741V32.3493H9.42649V9.43522ZM4.76506 4.76943H145.127V37.1189H4.76506V4.76943ZM0 0H149.892V41.8884H0V0Z" fill="#B4100D"/>
</g>
<path d="M34.1277 51.1588C35.3893 50.1454 37.1643 50.0423 38.694 50.3623C39.9381 50.6033 41.0884 51.4775 41.4182 52.7359C40.6795 52.9059 39.9314 53.0331 39.1887 53.1817C38.9728 52.5658 38.3803 52.179 37.7475 52.104C37.1683 52.0585 36.5181 52.0263 36.0274 52.3932C35.6641 52.6475 35.6225 53.2821 36.01 53.5338C36.4202 53.8269 36.931 53.9207 37.4123 54.0331C38.5371 54.2513 39.7263 54.4802 40.6514 55.1991C41.7333 56.0439 41.6662 57.7909 40.8002 58.7629C40.0011 59.6424 38.757 59.953 37.6081 59.9851C36.3358 60.0387 34.975 59.7629 33.995 58.9048C33.4735 58.4617 33.1517 57.8365 32.9707 57.1872C33.7107 57.0158 34.4575 56.8873 35.2029 56.7427C35.6011 58.1002 37.4123 58.4268 38.5412 57.8177C39.1056 57.5339 39.1713 56.6209 38.5519 56.3585C37.1201 55.7052 35.3611 55.8391 34.1116 54.7627C32.9774 53.9046 33.031 52.0263 34.1277 51.1588Z" fill="#B4100D"/>
<path d="M86.1494 50.6222C87.4927 50.0787 89.0385 50.0693 90.4087 50.5271C91.4276 50.8632 92.2843 51.6878 92.5591 52.7361C91.8137 52.8994 91.067 53.0627 90.3108 53.1631C90.103 52.471 89.3724 52.1162 88.6926 52.0868C88.1617 52.06 87.5705 52.068 87.1375 52.4201C86.7808 52.7066 86.7862 53.3358 87.2045 53.5674C88.0236 54.0587 89.0184 54.0534 89.914 54.3305C90.8203 54.5902 91.8124 54.9543 92.3205 55.8044C92.8567 56.8072 92.6154 58.1606 91.7802 58.9304C91.1233 59.565 90.2076 59.8327 89.3241 59.9532C87.9781 60.0804 86.5194 59.9278 85.3973 59.1098C84.7524 58.6506 84.3127 57.9504 84.125 57.1874C84.8731 57.0307 85.6198 56.846 86.3813 56.7697C86.7621 58.1272 88.6122 58.4244 89.7142 57.8005C90.2304 57.5234 90.3122 56.6612 89.7491 56.3881C88.5599 55.7817 87.1348 55.8714 85.9563 55.2167C85.105 54.8245 84.3811 53.9958 84.436 53.0105C84.3757 51.9328 85.1868 51.0024 86.1494 50.6222Z" fill="#B4100D"/>
<path d="M143.247 50.6222C144.59 50.0787 146.136 50.0693 147.506 50.5271C148.525 50.8632 149.382 51.6878 149.657 52.7361C148.911 52.8994 148.165 53.0627 147.408 53.1631C147.201 52.471 146.47 52.1162 145.79 52.0868C145.259 52.06 144.668 52.068 144.235 52.4201C143.879 52.7066 143.884 53.3358 144.302 53.5674C145.121 54.0587 146.116 54.0534 147.012 54.3305C147.918 54.5902 148.91 54.9543 149.418 55.8044C149.954 56.8072 149.713 58.1606 148.878 58.9304C148.221 59.565 147.305 59.8327 146.422 59.9532C145.076 60.0804 143.617 59.9278 142.495 59.1098C141.85 58.6506 141.41 57.9504 141.223 57.1874C141.971 57.0307 142.717 56.846 143.479 56.7697C143.86 58.1272 145.71 58.4244 146.812 57.8005C147.328 57.5234 147.41 56.6612 146.847 56.3881C145.658 55.7817 144.232 55.8714 143.054 55.2167C142.203 54.8245 141.479 53.9958 141.534 53.0105C141.473 51.9328 142.284 51.0024 143.247 50.6222Z" fill="#B4100D"/>
<path d="M125.845 51.0397C127.085 50.1133 128.798 49.9888 130.239 50.4667C131.388 50.8443 132.265 51.8148 132.655 52.9434C131.9 53.1402 131.158 53.3785 130.399 53.5606C130.216 52.9648 129.812 52.3945 129.196 52.1977C128.431 51.9005 127.468 52.2165 127.069 52.9421C126.63 53.6837 126.56 54.5793 126.589 55.4227C126.635 56.1457 126.768 56.9141 127.241 57.4898C127.739 58.1069 128.679 58.2783 129.377 57.9155C129.916 57.6491 130.239 57.0908 130.393 56.5299C131.158 56.6919 131.902 56.9342 132.663 57.1109C132.305 58.3291 131.367 59.3975 130.132 59.7696C128.339 60.3279 126.075 59.8901 124.995 58.2475C124.197 57.0814 124.045 55.6048 124.181 54.2326C124.324 53.0197 124.842 51.7881 125.845 51.0397Z" fill="#B4100D"/>
<path d="M0 50.3436C0.801716 50.3436 1.60343 50.3436 2.40515 50.3436C2.40515 53.5124 2.40515 56.6799 2.40515 59.8487C1.60343 59.8487 0.801716 59.8487 0 59.8487C0 56.6799 0 53.5124 0 50.3436Z" fill="#B4100D"/>
<path d="M4.17833 50.3436C5.00418 50.3423 5.83003 50.345 6.65587 50.3423C7.88794 52.3035 9.20581 54.2139 10.3373 56.2367C10.3078 54.2728 10.3293 52.3076 10.3226 50.3436C11.068 50.345 11.8134 50.3396 12.5588 50.3463C12.5575 53.5124 12.5575 56.6799 12.5588 59.846C11.7852 59.8527 11.013 59.8473 10.2408 59.8487C8.95511 57.8151 7.62249 55.807 6.39847 53.736C6.40919 55.7735 6.40249 57.8111 6.40383 59.8487C5.66244 59.8487 4.91972 59.8487 4.17833 59.8487C4.17833 56.6799 4.17699 53.5124 4.17833 50.3436Z" fill="#B4100D"/>
<path d="M14.3438 50.3436C15.7045 50.3463 17.0666 50.3396 18.4274 50.3449C19.5723 50.4185 20.7709 50.7599 21.5927 51.602C22.4923 52.4882 22.8221 53.7989 22.8074 55.0278C22.8409 56.301 22.5272 57.6678 21.5941 58.5889C20.7762 59.4309 19.5804 59.771 18.4381 59.8459C17.0733 59.854 15.7085 59.8459 14.3438 59.8486C14.3438 56.6798 14.3438 53.5124 14.3438 50.3436ZM16.7449 52.2232C16.7529 54.1402 16.7476 56.056 16.7476 57.9731C17.6538 57.969 18.6513 58.0587 19.4463 57.5366C20.2051 57.0145 20.3673 56.0158 20.3633 55.1604C20.374 54.2955 20.2641 53.2848 19.5281 52.7131C18.7304 52.1281 17.682 52.2192 16.7449 52.2232Z" fill="#B4100D"/>
<path d="M23.9588 50.3437C24.7578 50.349 25.5568 50.3316 26.3559 50.3557C26.2996 51.2446 26.3223 52.1376 26.3492 53.0292C26.325 54.1872 26.2861 55.3505 26.3719 56.5072C26.3934 57.036 26.5999 57.613 27.0852 57.8874C27.6925 58.2154 28.517 58.19 29.06 57.7415C29.5171 57.3279 29.5882 56.6692 29.6029 56.0882C29.6096 54.1738 29.6043 52.2594 29.6056 50.3437C30.4033 50.345 31.201 50.3396 31.9987 50.3463C31.996 52.3062 31.9987 54.2675 31.9974 56.2274C31.9612 57.3051 31.622 58.4551 30.7519 59.1539C29.7477 59.9759 28.3602 60.0803 27.1187 59.9397C26.1977 59.8206 25.2766 59.415 24.7109 58.6559C24.1599 57.9316 23.9467 56.9999 23.9574 56.1016C23.9601 54.1832 23.9588 52.2634 23.9588 50.3437Z" fill="#B4100D"/>
<path d="M41.8946 50.3491C44.6135 50.3344 47.3323 50.3518 50.0512 50.3411C50.0981 50.9663 50.0941 51.5941 50.0579 52.2193C49.098 52.218 48.1394 52.2153 47.1808 52.2207C47.1849 54.7629 47.1808 57.3065 47.1822 59.8488C46.3805 59.8488 45.5788 59.8488 44.777 59.8488C44.777 57.3052 44.7757 54.7616 44.777 52.2193C43.8077 52.2032 42.8371 52.2501 41.8691 52.1912C41.8879 51.5767 41.8611 50.9622 41.8946 50.3491Z" fill="#B4100D"/>
<path d="M51.1738 50.3436C52.6848 50.345 54.1957 50.3423 55.7066 50.3436C56.6665 50.3878 57.6921 50.7064 58.3021 51.4936C58.8893 52.2192 58.9765 53.2193 58.833 54.1109C58.6762 55.0065 58.0193 55.7508 57.1934 56.1042C57.8986 57.3506 58.5931 58.6037 59.3009 59.8474C58.4147 59.85 57.5286 59.85 56.6424 59.8474C56.078 58.7014 55.476 57.5728 54.9183 56.4242C54.4719 56.4068 54.0268 56.4121 53.5817 56.4121C53.5817 57.5568 53.5817 58.7014 53.583 59.846C52.7786 59.8527 51.9769 59.8474 51.1738 59.8487C51.1738 56.6799 51.1738 53.5124 51.1738 50.3436ZM53.5817 52.1295C53.5817 52.9622 53.5817 53.7949 53.5817 54.6276C54.2828 54.5901 55.0095 54.72 55.6932 54.5205C56.6853 54.2728 56.7215 52.6222 55.7844 52.2781C55.0725 52.0559 54.315 52.1469 53.5817 52.1295Z" fill="#B4100D"/>
<path d="M60.3301 50.3436C61.1318 50.3436 61.9335 50.3436 62.7352 50.3436C62.7352 53.5124 62.7352 56.6799 62.7352 59.8487C61.9335 59.8487 61.1318 59.8487 60.3301 59.8487C60.3301 56.6799 60.3301 53.5124 60.3301 50.3436Z" fill="#B4100D"/>
<path d="M66.8064 50.3436C67.6698 50.3436 68.5345 50.3436 69.3993 50.3436C70.5442 53.5084 71.665 56.6812 72.8059 59.8487C71.964 59.8487 71.122 59.8473 70.2801 59.8487C70.1045 59.2784 69.9248 58.7107 69.7653 58.1351C68.6378 58.1043 67.5103 58.1297 66.3814 58.1204C66.2072 58.6893 66.0208 59.2556 65.8774 59.8326C65.0582 59.8674 64.2391 59.8406 63.4199 59.8487C64.5488 56.6812 65.683 53.5138 66.8064 50.3436ZM66.8976 56.3666C67.6712 56.368 68.4447 56.3706 69.2196 56.3653C68.8483 55.0841 68.2825 53.8498 68.0948 52.5218C67.7556 53.819 67.3132 55.0895 66.8976 56.3666Z" fill="#B4100D"/>
<path d="M73.5513 50.3436C74.3557 50.349 75.1615 50.3302 75.9659 50.3557C75.8908 52.8899 75.9484 55.4281 75.9283 57.9637C77.332 57.9865 78.737 57.9691 80.1407 57.9744C80.1407 58.5996 80.1407 59.2235 80.1407 59.8486C77.9313 59.8406 75.7205 59.8647 73.5098 59.8366C73.5915 56.6732 73.5044 53.507 73.5513 50.3436Z" fill="#B4100D"/>
<path d="M93.8086 50.3436C96.1615 50.3423 98.5157 50.3463 100.869 50.3423C100.915 50.9581 100.883 51.5753 100.903 52.1924C99.3415 52.2513 97.7783 52.2005 96.2164 52.2179C96.2164 52.7975 96.2164 53.3772 96.2164 53.9582C97.4994 53.9582 98.7811 53.9596 100.065 53.9569C100.111 54.5727 100.08 55.1912 100.098 55.8084C98.8052 55.8619 97.5102 55.8177 96.2164 55.8325C96.2164 56.546 96.2164 57.2595 96.2164 57.9744C97.8132 57.9744 99.4085 57.9758 101.007 57.9731C101.048 58.5889 101.017 59.2061 101.037 59.8232C98.6283 59.8821 96.2178 59.8326 93.8086 59.8487C93.8086 56.6799 93.8086 53.5124 93.8086 50.3436Z" fill="#B4100D"/>
<path d="M102.315 50.3436C103.804 50.3436 105.292 50.3436 106.78 50.3423C107.689 50.3744 108.653 50.6355 109.295 51.3155C110.074 52.1308 110.203 53.3933 109.894 54.4388C109.666 55.2006 109.056 55.7883 108.34 56.1069C109.051 57.3492 109.735 58.6077 110.453 59.8473C109.558 59.8393 108.662 59.8714 107.768 59.8286C107.222 58.6773 106.616 57.5567 106.053 56.4148C105.608 56.4108 105.164 56.4121 104.721 56.4135C104.719 57.5581 104.719 58.704 104.721 59.8487C103.919 59.8487 103.116 59.8487 102.315 59.8487C102.314 56.6799 102.314 53.5124 102.315 50.3436ZM104.719 52.1308C104.721 52.9635 104.719 53.7949 104.721 54.6276C105.579 54.5526 106.604 54.8565 107.319 54.2394C107.773 53.6516 107.683 52.4977 106.87 52.2553C106.17 52.0666 105.435 52.1415 104.719 52.1308Z" fill="#B4100D"/>
<path d="M110.32 50.3436C111.192 50.3543 112.063 50.3195 112.933 50.3637C113.279 51.6248 113.708 52.8618 114.086 54.1148C114.413 55.2206 114.841 56.3077 114.984 57.459C115.538 55.0479 116.388 52.7158 117.083 50.3436C117.912 50.3436 118.742 50.3436 119.572 50.3436C118.457 53.4963 117.36 56.6571 116.241 59.8085C115.383 59.8968 114.496 59.8393 113.629 59.8326C112.549 56.6624 111.425 53.5057 110.32 50.3436Z" fill="#B4100D"/>
<path d="M120.415 50.3436C121.215 50.3436 122.019 50.3436 122.82 50.3436C122.819 53.5124 122.819 56.6799 122.82 59.8487C122.019 59.8487 121.215 59.8487 120.415 59.8487C120.414 56.6799 120.414 53.5124 120.415 50.3436Z" fill="#B4100D"/>
<path d="M133.76 50.3437C136.113 50.3424 138.465 50.3464 140.82 50.3411C140.86 50.9663 140.859 51.5941 140.824 52.2193C139.271 52.2166 137.719 52.218 136.168 52.218C136.168 52.7976 136.168 53.3773 136.168 53.9583C137.448 53.957 138.73 53.961 140.011 53.9557C140.057 54.5808 140.056 55.2087 140.017 55.8339C138.734 55.8312 137.451 55.8326 136.168 55.8326C136.168 56.5461 136.168 57.261 136.168 57.9746C137.774 57.992 139.383 57.9397 140.989 58.0013C140.967 58.6171 141.002 59.2356 140.952 59.8515C138.554 59.8448 136.157 59.8501 133.76 59.8488C133.76 56.68 133.76 53.5125 133.76 50.3437Z" fill="#B4100D"/>
</svg>
