<svg width="150" height="10" viewBox="0 0 150 10" fill="none" xmlns="http://www.w3.org/2000/svg">
<path d="M34.1277 1.15883C35.3893 0.145409 37.1643 0.0423259 38.694 0.362284C39.9381 0.603257 41.0884 1.47745 41.4182 2.73587C40.6795 2.90589 39.9314 3.03307 39.1887 3.18167C38.9728 2.56585 38.3803 2.17895 37.7475 2.10398C37.1683 2.05847 36.5181 2.02634 36.0274 2.39315C35.6641 2.64751 35.6225 3.28207 36.01 3.53376C36.4202 3.82694 36.931 3.92065 37.4123 4.0331C38.5371 4.25132 39.7263 4.48024 40.6514 5.19915C41.7333 6.04389 41.6662 7.79094 40.8002 8.76287C40.0011 9.64242 38.757 9.95301 37.6081 9.98514C36.3358 10.0387 34.975 9.76291 33.995 8.90477C33.4735 8.46165 33.1517 7.83646 32.9707 7.18717C33.7107 7.01582 34.4575 6.8873 35.2029 6.74271C35.6011 8.10019 37.4123 8.42685 38.5412 7.81772C39.1056 7.53391 39.1713 6.62089 38.5519 6.35849C37.1201 5.70519 35.3611 5.83906 34.1116 4.76272C32.9774 3.90459 33.031 2.02634 34.1277 1.15883Z" fill="#B4100D"/>
<path d="M86.1494 0.622184C87.4927 0.0786559 89.0385 0.0692843 90.4087 0.527133C91.4276 0.863156 92.2843 1.68782 92.5591 2.73605C91.8137 2.89938 91.067 3.0627 90.3108 3.16311C90.103 2.47098 89.3724 2.11622 88.6926 2.08676C88.1617 2.05999 87.5705 2.06802 87.1375 2.42011C86.7808 2.7066 86.7862 3.33581 87.2045 3.56741C88.0236 4.05873 89.0184 4.05337 89.914 4.33049C90.8203 4.5902 91.8124 4.95434 92.3205 5.80444C92.8567 6.80716 92.6154 8.16062 91.7802 8.93039C91.1233 9.56496 90.2076 9.8327 89.3241 9.95319C87.9781 10.0804 86.5194 9.92776 85.3973 9.10979C84.7524 8.6506 84.3127 7.95044 84.125 7.18736C84.8731 7.03073 85.6198 6.84598 86.3813 6.76967C86.7621 8.12715 88.6122 8.42435 89.7142 7.8005C90.2304 7.52338 90.3122 6.66123 89.7491 6.38813C88.5599 5.78168 87.1348 5.87138 85.9563 5.21673C85.105 4.82448 84.3811 3.9958 84.436 3.01049C84.3757 1.93281 85.1868 1.00239 86.1494 0.622184Z" fill="#B4100D"/>
<path d="M143.247 0.622184C144.59 0.0786559 146.136 0.0692843 147.506 0.527133C148.525 0.863156 149.382 1.68782 149.657 2.73605C148.911 2.89938 148.165 3.0627 147.408 3.16311C147.201 2.47098 146.47 2.11622 145.79 2.08676C145.259 2.05999 144.668 2.06802 144.235 2.42011C143.879 2.7066 143.884 3.33581 144.302 3.56741C145.121 4.05873 146.116 4.05337 147.012 4.33049C147.918 4.5902 148.91 4.95434 149.418 5.80444C149.954 6.80716 149.713 8.16062 148.878 8.93039C148.221 9.56496 147.305 9.8327 146.422 9.95319C145.076 10.0804 143.617 9.92776 142.495 9.10979C141.85 8.6506 141.41 7.95044 141.223 7.18736C141.971 7.03073 142.717 6.84598 143.479 6.76967C143.86 8.12715 145.71 8.42435 146.812 7.8005C147.328 7.52338 147.41 6.66123 146.847 6.38813C145.658 5.78168 144.232 5.87138 143.054 5.21673C142.203 4.82448 141.479 3.9958 141.534 3.01049C141.473 1.93281 142.284 1.00239 143.247 0.622184Z" fill="#B4100D"/>
<path d="M125.845 1.03971C127.085 0.113304 128.798 -0.0111993 130.239 0.46673C131.388 0.844255 132.265 1.81484 132.655 2.9434C131.9 3.14019 131.158 3.37849 130.399 3.56055C130.216 2.96482 129.812 2.39451 129.196 2.19772C128.431 1.90052 127.468 2.21646 127.069 2.94206C126.63 3.68372 126.56 4.57934 126.589 5.42274C126.635 6.14566 126.768 6.91409 127.241 7.48975C127.739 8.10691 128.679 8.27827 129.377 7.91547C129.916 7.64906 130.239 7.09081 130.393 6.52988C131.158 6.69186 131.902 6.93418 132.663 7.11089C132.305 8.32914 131.367 9.39746 130.132 9.76962C128.339 10.3279 126.075 9.89011 124.995 8.24748C124.197 7.08144 124.045 5.60481 124.181 4.2326C124.324 3.01971 124.842 1.78807 125.845 1.03971Z" fill="#B4100D"/>
<path d="M0 0.343628C0.801716 0.343628 1.60343 0.343628 2.40515 0.343628C2.40515 3.51242 2.40515 6.67988 2.40515 9.84867C1.60343 9.84867 0.801716 9.84867 0 9.84867C0 6.67988 0 3.51242 0 0.343628Z" fill="#B4100D"/>
<path d="M4.17833 0.343624C5.00418 0.342285 5.83003 0.344963 6.65587 0.342285C7.88794 2.30354 9.20581 4.21392 10.3373 6.23675C10.3078 4.27282 10.3293 2.30755 10.3226 0.343624C11.068 0.344962 11.8134 0.339608 12.5588 0.346301C12.5575 3.51242 12.5575 6.67987 12.5588 9.84599C11.7852 9.85268 11.013 9.84733 10.2408 9.84867C8.95511 7.81512 7.62249 5.80701 6.39847 3.73599C6.40919 5.77355 6.40249 7.81111 6.40383 9.84867C5.66244 9.84867 4.91972 9.84867 4.17833 9.84867C4.17833 6.67987 4.17699 3.51242 4.17833 0.343624Z" fill="#B4100D"/>
<path d="M14.3438 0.34358C15.7045 0.346257 17.0666 0.339563 18.4274 0.344918C19.5723 0.418549 20.7709 0.759928 21.5927 1.60199C22.4923 2.48824 22.8221 3.79886 22.8074 5.02783C22.8409 6.30097 22.5272 7.66782 21.5941 8.58887C20.7762 9.43094 19.5804 9.77098 18.4381 9.84595C17.0733 9.85398 15.7085 9.84595 14.3438 9.84862C14.3438 6.67983 14.3438 3.51237 14.3438 0.34358ZM16.7449 2.22317C16.7529 4.14024 16.7476 6.05598 16.7476 7.97305C17.6538 7.96903 18.6513 8.05873 19.4463 7.53662C20.2051 7.01451 20.3673 6.01582 20.3633 5.16036C20.374 4.29554 20.2641 3.28479 19.5281 2.71315C18.7304 2.12812 17.682 2.21915 16.7449 2.22317Z" fill="#B4100D"/>
<path d="M23.9588 0.343659C24.7578 0.349014 25.5568 0.331611 26.3559 0.355708C26.2996 1.24463 26.3223 2.13757 26.3492 3.02917C26.325 4.18718 26.2861 5.35054 26.3719 6.50721C26.3934 7.03601 26.5999 7.61301 27.0852 7.88745C27.6925 8.21544 28.517 8.19001 29.06 7.74153C29.5171 7.32786 29.5882 6.6692 29.6029 6.08819C29.6096 4.17379 29.6043 2.25939 29.6056 0.343659C30.4033 0.344998 31.201 0.339643 31.9987 0.346337C31.996 2.30625 31.9987 4.2675 31.9974 6.22741C31.9612 7.3051 31.622 8.45507 30.7519 9.1539C29.7477 9.97588 28.3602 10.0803 27.1187 9.93974C26.1977 9.82059 25.2766 9.41495 24.7109 8.65589C24.1599 7.93163 23.9467 6.99987 23.9574 6.10157C23.9601 4.18316 23.9588 2.26341 23.9588 0.343659Z" fill="#B4100D"/>
<path d="M41.8946 0.349097C44.6135 0.334371 47.3323 0.351774 50.0512 0.341064C50.0981 0.966255 50.0941 1.59412 50.0579 2.21931C49.098 2.21798 48.1394 2.2153 47.1808 2.22065C47.1849 4.76292 47.1808 7.30652 47.1822 9.84879C46.3805 9.84879 45.5788 9.84879 44.777 9.84879C44.777 7.30518 44.7757 4.76158 44.777 2.21931C43.8077 2.20325 42.8371 2.25011 41.8691 2.1912C41.8879 1.57672 41.8611 0.962239 41.8946 0.349097Z" fill="#B4100D"/>
<path d="M51.1738 0.343648C52.6848 0.344987 54.1957 0.342309 55.7066 0.343648C56.6665 0.387827 57.6921 0.706446 58.3021 1.49362C58.8893 2.21922 58.9765 3.21926 58.833 4.11086C58.6762 5.00647 58.0193 5.75081 57.1934 6.10424C57.8986 7.3506 58.5931 8.60366 59.3009 9.84735C58.4147 9.85003 57.5286 9.85003 56.6424 9.84735C56.078 8.70139 55.476 7.57283 54.9183 6.4242C54.4719 6.40679 54.0268 6.41215 53.5817 6.41215C53.5817 7.55677 53.5817 8.70139 53.583 9.84601C52.7786 9.85271 51.9769 9.84735 51.1738 9.84869C51.1738 6.6799 51.1738 3.51244 51.1738 0.343648ZM53.5817 2.12953C53.5817 2.96222 53.5817 3.79492 53.5817 4.62761C54.2828 4.59013 55.0095 4.71998 55.6932 4.52051C56.6853 4.27284 56.7215 2.62218 55.7844 2.27813C55.0725 2.05589 54.315 2.14693 53.5817 2.12953Z" fill="#B4100D"/>
<path d="M60.3301 0.343628C61.1318 0.343628 61.9335 0.343628 62.7352 0.343628C62.7352 3.51242 62.7352 6.67988 62.7352 9.84867C61.9335 9.84867 61.1318 9.84867 60.3301 9.84867C60.3301 6.67988 60.3301 3.51242 60.3301 0.343628Z" fill="#B4100D"/>
<path d="M66.8064 0.343628C67.6698 0.343628 68.5345 0.343628 69.3993 0.343628C70.5442 3.50841 71.665 6.68122 72.8059 9.84867C71.964 9.84867 71.122 9.84733 70.2801 9.84867C70.1045 9.27837 69.9248 8.71074 69.7653 8.13509C68.6378 8.1043 67.5103 8.12973 66.3814 8.12036C66.2072 8.68932 66.0208 9.25561 65.8774 9.83261C65.0582 9.86741 64.2391 9.84064 63.4199 9.84867C64.5488 6.68122 65.683 3.51376 66.8064 0.343628ZM66.8976 6.36661C67.6712 6.36795 68.4447 6.37063 69.2196 6.36527C68.8483 5.0841 68.2825 3.84978 68.0948 2.52176C67.7556 3.81899 67.3132 5.08946 66.8976 6.36661Z" fill="#B4100D"/>
<path d="M73.5513 0.343606C74.3557 0.348961 75.1615 0.330218 75.9659 0.355654C75.8908 2.88989 75.9484 5.42813 75.9283 7.96371C77.332 7.98646 78.737 7.96906 80.1407 7.97442C80.1407 8.59961 80.1407 9.22346 80.1407 9.84865C77.9313 9.84062 75.7205 9.86471 73.5098 9.8366C73.5915 6.67316 73.5044 3.50704 73.5513 0.343606Z" fill="#B4100D"/>
<path d="M93.8086 0.343624C96.1615 0.342285 98.5157 0.346301 100.869 0.342285C100.915 0.958105 100.883 1.57526 100.903 2.19242C99.3415 2.25133 97.7783 2.20045 96.2164 2.21786C96.2164 2.79753 96.2164 3.37721 96.2164 3.95822C97.4994 3.95822 98.7811 3.95956 100.065 3.95688C100.111 4.5727 100.08 5.1912 100.098 5.80835C98.8052 5.8619 97.5102 5.81773 96.2164 5.83245C96.2164 6.546 96.2164 7.25955 96.2164 7.97443C97.8132 7.97443 99.4085 7.97577 101.007 7.97309C101.048 8.58891 101.017 9.20607 101.037 9.82323C98.6283 9.88213 96.2178 9.8326 93.8086 9.84867C93.8086 6.67987 93.8086 3.51242 93.8086 0.343624Z" fill="#B4100D"/>
<path d="M102.315 0.343624C103.804 0.343624 105.292 0.343624 106.78 0.342285C107.689 0.374415 108.653 0.635468 109.295 1.31555C110.074 2.13084 110.203 3.39327 109.894 4.43882C109.666 5.20057 109.056 5.78827 108.34 6.10689C109.051 7.34924 109.735 8.60766 110.453 9.84733C109.558 9.8393 108.662 9.87143 107.768 9.82859C107.222 8.67727 106.616 7.55675 106.053 6.4148C105.608 6.41079 105.164 6.41213 104.721 6.41346C104.719 7.55809 104.719 8.70405 104.721 9.84867C103.919 9.84867 103.116 9.84867 102.315 9.84867C102.314 6.67987 102.314 3.51242 102.315 0.343624ZM104.719 2.13084C104.721 2.96354 104.719 3.79489 104.721 4.62759C105.579 4.55262 106.604 4.85651 107.319 4.23935C107.773 3.65165 107.683 2.49765 106.87 2.25534C106.17 2.06658 105.435 2.14155 104.719 2.13084Z" fill="#B4100D"/>
<path d="M110.32 0.343586C111.192 0.354296 112.063 0.319489 112.933 0.363667C113.279 1.62476 113.708 2.86175 114.086 4.11481C114.413 5.22061 114.841 6.30767 114.984 7.45898C115.538 5.04791 116.388 2.71583 117.083 0.343586C117.912 0.343586 118.742 0.343586 119.572 0.343586C118.457 3.49632 117.36 6.65708 116.241 9.80847C115.383 9.89682 114.496 9.83926 113.629 9.83256C112.549 6.66243 111.425 3.50569 110.32 0.343586Z" fill="#B4100D"/>
<path d="M120.415 0.343628C121.215 0.343628 122.019 0.343628 122.82 0.343628C122.819 3.51242 122.819 6.67988 122.82 9.84867C122.019 9.84867 121.215 9.84867 120.415 9.84867C120.414 6.67988 120.414 3.51242 120.415 0.343628Z" fill="#B4100D"/>
<path d="M133.76 0.343742C136.113 0.342403 138.465 0.346419 140.82 0.341064C140.86 0.966255 140.859 1.59412 140.824 2.21931C139.271 2.21664 137.719 2.21798 136.168 2.21798C136.168 2.79765 136.168 3.37732 136.168 3.95834C137.448 3.957 138.73 3.96101 140.011 3.95566C140.057 4.58085 140.056 5.20872 140.017 5.83391C138.734 5.83123 137.451 5.83257 136.168 5.83257C136.168 6.54612 136.168 7.261 136.168 7.97455C137.774 7.99196 139.383 7.93974 140.989 8.00133C140.967 8.61715 141.002 9.23564 140.952 9.85146C138.554 9.84477 136.157 9.85012 133.76 9.84879C133.76 6.67999 133.76 3.51254 133.76 0.343742Z" fill="#B4100D"/>
</svg>
