<svg width="30" height="30" viewBox="0 0 30 30" fill="none" xmlns="http://www.w3.org/2000/svg">
<path d="M25 21.33C25 21.69 24.9199 22.06 24.7496 22.42C24.5794 22.78 24.359 23.12 24.0686 23.44C23.5779 23.98 23.0371 24.37 22.4261 24.62C21.8252 24.87 21.1743 25 20.4732 25C19.4517 25 18.36 24.76 17.2083 24.27C16.0566 23.78 14.9049 23.12 13.7631 22.29C12.6114 21.45 11.5198 20.52 10.4782 19.49C9.44667 18.45 8.51527 17.36 7.68403 16.22C6.86279 15.08 6.2018 13.94 5.72108 12.81C5.24036 11.67 5 10.58 5 9.54C5 8.86 5.12018 8.21 5.36054 7.61C5.6009 7 5.98147 6.44 6.51227 5.94C7.15323 5.31 7.85428 5 8.59539 5C8.87581 5 9.15623 5.06 9.40661 5.18C9.667 5.3 9.89735 5.48 10.0776 5.74L12.4011 9.01C12.5814 9.26 12.7116 9.49 12.8017 9.71C12.8918 9.92 12.9419 10.13 12.9419 10.32C12.9419 10.56 12.8718 10.8 12.7316 11.03C12.6014 11.26 12.4111 11.5 12.1708 11.74L11.4096 12.53C11.2994 12.64 11.2494 12.77 11.2494 12.93C11.2494 13.01 11.2594 13.08 11.2794 13.16C11.3095 13.24 11.3395 13.3 11.3595 13.36C11.5398 13.69 11.8503 14.12 12.2909 14.64C12.7416 15.16 13.2223 15.69 13.7431 16.22C14.2839 16.75 14.8047 17.24 15.3355 17.69C15.8563 18.13 16.2869 18.43 16.6274 18.61C16.6775 18.63 16.7376 18.66 16.8077 18.69C16.8878 18.72 16.968 18.73 17.0581 18.73C17.2283 18.73 17.3585 18.67 17.4687 18.56L18.2298 17.81C18.4802 17.56 18.7206 17.37 18.9509 17.25C19.1813 17.11 19.4116 17.04 19.662 17.04C19.8523 17.04 20.0526 17.08 20.2729 17.17C20.4932 17.26 20.7236 17.39 20.974 17.56L24.2889 19.91C24.5493 20.09 24.7296 20.3 24.8398 20.55C24.9399 20.8 25 21.05 25 21.33Z" stroke="#1F1F1F" stroke-width="2" stroke-miterlimit="10"/>
<path d="M21.5 12C21.5 11.4 21.03 10.48 20.33 9.73C19.69 9.04 18.84 8.5 18 8.5" stroke="#1F1F1F" stroke-width="2" stroke-linecap="round" stroke-linejoin="round"/>
<path d="M25 12C25 8.13 21.87 5 18 5" stroke="#1F1F1F" stroke-width="2" stroke-linecap="round" stroke-linejoin="round"/>
</svg>
