<svg width="183" height="103" viewBox="0 0 183 103" fill="none" xmlns="http://www.w3.org/2000/svg">
<g clip-path="url(#clip0_317_968)">
<path d="M0.326172 0H14.7507C14.7519 4.82315 14.7494 9.64598 14.7519 14.4701C19.0613 12.9508 23.7441 12.5702 28.2617 13.1912C32.2164 13.7546 36.0672 15.2832 39.1828 17.8075C42.122 20.1661 44.3468 23.3708 45.6328 26.906C46.9666 30.5263 47.3467 34.4466 47.0552 38.2789C46.7678 42.2379 45.6696 46.1876 43.5326 49.5581C41.4516 52.8823 38.3765 55.5458 34.8437 57.2357C30.2208 59.4629 24.9315 60.1307 19.8624 59.4938C15.5715 58.9507 11.3698 57.313 8.03147 54.5299C5.36558 52.3309 3.30324 49.4311 2.03477 46.2216C1.00204 43.6394 0.473303 40.8742 0.326485 38.1007L0.326172 0ZM22.5267 22.901C21.3187 23.0813 20.1519 23.553 19.1749 24.2885C17.6175 25.4494 16.5751 27.1699 15.9052 28.9661C15.1952 30.8897 14.8408 32.9367 14.7507 34.9805C14.7713 36.2842 14.6871 37.5936 14.8418 38.8914C15.029 40.6596 15.4122 42.4188 16.1055 44.0613C16.7066 45.4762 17.5553 46.809 18.7176 47.8298C21.1603 50.0329 25.1075 50.3852 27.8594 48.5545C29.7769 47.2907 31.0096 45.2249 31.7328 43.0876C32.4929 40.847 32.7586 38.4657 32.7539 36.108C32.7276 33.6277 32.3858 31.1251 31.5011 28.7971C30.7777 26.9141 29.6429 25.1051 27.9311 23.9777C26.3606 22.9211 24.3765 22.6124 22.5267 22.901Z" fill="#7C7D8D"/>
<path d="M94.2448 0H108.154C108.162 0.149921 108.168 0.300782 108.174 0.450704C108.172 11.0992 108.174 21.7483 108.172 32.3968C112.25 26.2303 116.315 20.0585 120.398 13.8954C126.428 13.902 132.459 13.8954 138.489 13.8976C132.548 20.993 126.597 28.0813 120.653 35.1742C127.244 42.985 133.845 50.7859 140.435 58.5964C134.434 58.6001 128.433 58.5964 122.432 58.5977C117.677 51.6851 112.929 44.7679 108.175 37.8556C108.17 44.7693 108.175 51.6823 108.172 58.5964C103.529 58.5977 98.8871 58.5984 94.2448 58.5964C94.2434 39.0641 94.2448 19.5326 94.2448 0Z" fill="#7C7D8D"/>
<path d="M63.0635 14.454C65.6524 13.4434 68.4315 12.9664 71.2051 12.9097C75.0796 12.8127 79.0637 13.5535 82.4125 15.5761C85.5439 17.4352 87.9518 20.3664 89.4398 23.6662C91.4445 28.0887 92.0252 33.0511 91.6743 37.8624C91.6004 38.834 91.4957 39.8046 91.3257 40.7642C81.7062 40.7649 72.0869 40.7615 62.4663 40.7663C62.6075 42.5176 63.3101 44.2312 64.5147 45.5201C66.1376 47.2903 68.4294 48.2918 70.7401 48.8037C73.1226 49.3465 75.5875 49.305 78.0122 49.1742C81.2271 48.9912 84.4186 48.4109 87.4817 47.4218C88.1002 50.5674 88.7121 53.714 89.323 56.861C84.5162 58.7892 79.3072 59.4996 74.1556 59.5988C69.7271 59.7021 65.2036 59.1291 61.1353 57.2991C57.7003 55.7744 54.6826 53.277 52.6682 50.0939C50.3084 46.4199 49.2895 42.0246 49.1852 37.6965C49.0138 31.8755 50.6312 25.9165 54.151 21.2315C56.4164 18.2042 59.5286 15.8114 63.0635 14.454ZM69.8432 22.2408C68.0383 22.4515 66.3326 23.3429 65.1211 24.695C63.5055 26.4837 62.6377 28.8515 62.3798 31.2252C67.8745 31.2252 73.3699 31.2252 78.8652 31.2252C78.8512 29.7544 78.6091 28.2759 78.0699 26.9025C77.5188 25.4934 76.6002 24.1942 75.3221 23.3573C73.7246 22.2978 71.7185 22.0173 69.8432 22.2408Z" fill="#7C7D8D"/>
<path d="M144.819 16.4849C148.284 14.3375 152.329 13.2417 156.376 12.9794C159.231 12.7885 162.122 12.9716 164.906 13.6483C168.451 14.503 171.813 16.2045 174.493 18.6905C177.402 21.3587 179.454 24.8986 180.498 28.6939C181.098 30.7587 181.311 32.9058 181.487 35.0406V36.7147C181.345 38.1845 181.263 39.6615 180.996 41.1156C180.569 43.5604 179.801 45.9555 178.639 48.1529C177.015 51.2484 174.583 53.9106 171.654 55.8161C167.619 58.4573 162.767 59.7033 157.97 59.7218C153.668 59.7596 149.31 58.8278 145.533 56.7252C142.306 54.9443 139.568 52.2839 137.724 49.0895C135.7 45.6146 134.736 41.5921 134.622 37.5906C134.486 33.1797 135.241 28.6736 137.258 24.718C138.953 21.3465 141.598 18.4586 144.819 16.4849ZM156.781 22.9077C155.686 23.0805 154.623 23.4846 153.711 24.1171C152.277 25.0939 151.245 26.5575 150.542 28.1237C149.601 30.2429 149.179 32.5571 149.049 34.8611C148.927 37.3454 149.1 39.8658 149.777 42.2674C150.335 44.2358 151.258 46.155 152.747 47.5881C155.28 50.1105 159.682 50.4862 162.531 48.2874C164.059 47.1431 165.11 45.4721 165.796 43.7132C166.731 41.301 167.047 38.694 167.046 36.1201C167.015 33.5706 166.664 30.9941 165.723 28.6119C165.007 26.8054 163.892 25.0814 162.249 23.9897C160.663 22.9146 158.652 22.6091 156.781 22.9077Z" fill="#7C7D8D"/>
<path d="M0.326172 88.9478C58.8766 80.7102 117.429 72.4884 175.981 64.2607C175.982 68.9431 175.981 73.6262 175.981 78.3093C117.964 86.4538 59.9483 94.5973 1.93241 102.742C1.44938 102.802 0.965723 102.868 0.494901 103H0.326172V88.9478Z" fill="#7C7D8D"/>
</g>
<defs>
<clipPath id="clip0_317_968">
<rect width="182" height="103" fill="white" transform="translate(0.326172)"/>
</clipPath>
</defs>
</svg>
