<svg width="260" height="87" viewBox="0 0 260 87" fill="none" xmlns="http://www.w3.org/2000/svg">
<path d="M3.25555 41.9786C-2.50667 24.5068 4.0754 6.98984 7.99887 0.5C8.70158 13.1975 16.7473 26.9964 19.2423 41.9786C21.526 55.6919 13.6206 71.0982 7.82325 75.5C11.6881 68.5587 9.01778 59.4503 3.25555 41.9786Z" fill="#7C7D8D"/>
<path d="M21.9118 41.9786C16.1496 24.5068 22.7317 6.98984 26.6552 0.5C27.3579 13.1975 35.4035 26.9964 37.8986 41.9786C40.1823 55.6919 32.2768 71.0982 26.4795 75.5C30.3444 68.5587 27.6741 59.4503 21.9118 41.9786Z" fill="#7C7D8D"/>
<path d="M40.5681 41.9786C34.8059 24.5068 41.388 6.98984 45.3114 0.5C46.0142 13.1975 54.0598 26.9964 56.5549 41.9786C58.8386 55.6919 50.9331 71.0982 45.1358 75.5C49.0007 68.5587 46.3304 59.4503 40.5681 41.9786Z" fill="#7C7D8D"/>
<path d="M71.4686 1.54167C71.4686 0.966371 71.9326 0.5 72.505 0.5C73.0774 0.5 73.5415 0.96637 73.5415 1.54167V74.4583C73.5415 75.0336 73.0774 75.5 72.505 75.5C71.9326 75.5 71.4686 75.0336 71.4686 74.4583V1.54167Z" fill="#7C7D8D"/>
<path d="M88.0519 13.1375L89.1713 12.0125H97.2308L98.5741 13.1375V38.6375L99.1711 37.8125L108.35 14.7125C109.096 12.9125 109.867 12.0125 110.663 12.0125H118.35L119.544 13.1375V62.9375L118.35 64.0625H110.29L108.947 62.9375V36.3125L108.35 37.0625L98.798 62.5625C98.4 63.5625 97.7532 64.0625 96.8577 64.0625H89.1713C88.4251 64.0625 88.0519 63.5625 88.0519 62.5625V13.1375Z" fill="#7C7D8D"/>
<path d="M127.083 21.6125C126.336 21.6125 125.963 21.2375 125.963 20.4875V13.1375C125.963 12.4375 126.734 11.9125 128.277 11.5625C128.774 11.4625 129.222 11.3875 129.62 11.3375C130.018 11.2875 130.316 11.2375 130.515 11.1875H139.396C139.794 11.2375 140.316 11.3375 140.963 11.4875C141.61 11.5875 142.356 11.7625 143.202 12.0125C146.734 13.0125 149.296 15.4375 150.888 19.2875C151.435 20.6375 151.709 22.7125 151.709 25.5125C151.709 30.4625 150.042 34.0625 146.709 36.3125C146.809 36.4625 146.933 36.5875 147.082 36.6875C148.873 38.0875 150.017 39.1125 150.515 39.7625C151.211 40.7625 151.734 42.0625 152.082 43.6625C152.182 44.3625 152.256 45.2125 152.306 46.2125C152.405 47.2125 152.455 48.3375 152.455 49.5875V53.2625C152.405 53.6125 152.356 53.9875 152.306 54.3875C152.256 54.7375 152.182 55.1375 152.082 55.5875C150.59 61.5375 146.485 64.6125 139.769 64.8125H135.739C134.197 64.8125 132.829 64.7625 131.635 64.6625C130.491 64.6125 129.496 64.5375 128.65 64.4375C126.61 64.1375 125.59 63.5125 125.59 62.5625V54.8375L125.963 54.0875C126.013 54.0375 126.262 54.0125 126.71 54.0125C127.307 54.0125 127.68 54.0375 127.829 54.0875C128.774 54.2875 129.595 54.4625 130.292 54.6125C130.988 54.7125 131.585 54.7875 132.083 54.8375H134.172C138.699 54.8375 140.963 52.5875 140.963 48.0875C140.963 46.5875 140.814 45.4875 140.515 44.7875C139.57 42.3875 138.177 41.1125 136.336 40.9625C135.341 40.8625 134.321 40.7875 133.277 40.7375C132.232 40.6375 131.187 40.5875 130.142 40.5875C129.396 40.4375 129.023 40.0375 129.023 39.3875V32.4125C129.023 31.7125 129.396 31.3375 130.142 31.2875C131.237 31.2375 132.331 31.1875 133.426 31.1375C134.52 31.0875 135.615 31.0125 136.709 30.9125C139.048 30.6625 140.217 29.1375 140.217 26.3375C140.217 23.9875 139.172 22.4125 137.082 21.6125C136.237 21.3625 134.844 21.2375 132.903 21.2375H130.142C128.65 21.4875 127.63 21.6125 127.083 21.6125Z" fill="#7C7D8D"/>
<path d="M168.771 22.4375L168.174 21.8375H157.801C157.055 21.8375 156.682 21.3875 156.682 20.4875V13.1375C156.682 12.3875 156.931 12.0125 157.428 12.0125H190.86C191.358 12.0125 191.607 12.3875 191.607 13.1375V20.4875C191.607 21.3875 191.358 21.8375 190.86 21.8375H180.04L179.517 22.4375V62.9375L178.174 64.0625H170.115L168.771 62.9375V22.4375Z" fill="#7C7D8D"/>
<path d="M205.154 22.4375L204.557 21.8375H194.184C193.438 21.8375 193.065 21.3875 193.065 20.4875V13.1375C193.065 12.3875 193.313 12.0125 193.811 12.0125H227.243C227.74 12.0125 227.989 12.3875 227.989 13.1375V20.4875C227.989 21.3875 227.74 21.8375 227.243 21.8375H216.422L215.9 22.4375V62.9375L214.557 64.0625H206.497L205.154 62.9375V22.4375Z" fill="#7C7D8D"/>
</svg>
