<svg width="228" height="76" viewBox="0 0 228 76" fill="none" xmlns="http://www.w3.org/2000/svg">
<path d="M3.25458 41.9786C-2.50765 24.5068 4.07443 6.98984 7.99789 0.5C8.7006 13.1975 16.7463 26.9964 19.2413 41.9786C21.5251 55.6919 13.6196 71.0982 7.82228 75.5C11.6871 68.5587 9.0168 59.4503 3.25458 41.9786Z" fill="#7C7D8D"/>
<path d="M21.9109 41.9786C16.1486 24.5068 22.7307 6.98984 26.6542 0.5C27.3569 13.1975 35.4026 26.9964 37.8976 41.9786C40.1814 55.6919 32.2759 71.0982 26.4786 75.5C30.3434 68.5587 27.6731 59.4503 21.9109 41.9786Z" fill="#7C7D8D"/>
<path d="M40.5672 41.9786C34.8049 24.5068 41.387 6.98984 45.3105 0.5C46.0132 13.1975 54.0588 26.9964 56.5539 41.9786C58.8376 55.6919 50.9321 71.0982 45.1348 75.5C48.9997 68.5587 46.3294 59.4503 40.5672 41.9786Z" fill="#7C7D8D"/>
<path d="M71.4676 1.54167C71.4676 0.966371 71.9316 0.5 72.5041 0.5C73.0765 0.5 73.5405 0.96637 73.5405 1.54167V74.4583C73.5405 75.0336 73.0765 75.5 72.5041 75.5C71.9316 75.5 71.4676 75.0336 71.4676 74.4583V1.54167Z" fill="#7C7D8D"/>
<path d="M88.051 13.1375L89.1703 12.0125H97.2299L98.5731 13.1375V38.6375L99.1701 37.8125L108.349 14.7125C109.095 12.9125 109.866 12.0125 110.662 12.0125H118.349L119.543 13.1375V62.9375L118.349 64.0625H110.289L108.946 62.9375V36.3125L108.349 37.0625L98.797 62.5625C98.399 63.5625 97.7522 64.0625 96.8567 64.0625H89.1703C88.4241 64.0625 88.051 63.5625 88.051 62.5625V13.1375Z" fill="#7C7D8D"/>
<path d="M127.082 21.6125C126.335 21.6125 125.962 21.2375 125.962 20.4875V13.1375C125.962 12.4375 126.733 11.9125 128.276 11.5625C128.773 11.4625 129.221 11.3875 129.619 11.3375C130.017 11.2875 130.315 11.2375 130.514 11.1875H139.395C139.793 11.2375 140.315 11.3375 140.962 11.4875C141.609 11.5875 142.355 11.7625 143.201 12.0125C146.733 13.0125 149.295 15.4375 150.887 19.2875C151.434 20.6375 151.708 22.7125 151.708 25.5125C151.708 30.4625 150.041 34.0625 146.708 36.3125C146.808 36.4625 146.932 36.5875 147.081 36.6875C148.872 38.0875 150.016 39.1125 150.514 39.7625C151.21 40.7625 151.733 42.0625 152.081 43.6625C152.181 44.3625 152.255 45.2125 152.305 46.2125C152.404 47.2125 152.454 48.3375 152.454 49.5875V53.2625C152.404 53.6125 152.355 53.9875 152.305 54.3875C152.255 54.7375 152.181 55.1375 152.081 55.5875C150.589 61.5375 146.484 64.6125 139.768 64.8125H135.738C134.196 64.8125 132.828 64.7625 131.634 64.6625C130.49 64.6125 129.495 64.5375 128.649 64.4375C126.609 64.1375 125.589 63.5125 125.589 62.5625V54.8375L125.962 54.0875C126.012 54.0375 126.261 54.0125 126.709 54.0125C127.306 54.0125 127.679 54.0375 127.828 54.0875C128.773 54.2875 129.594 54.4625 130.291 54.6125C130.987 54.7125 131.584 54.7875 132.082 54.8375H134.171C138.698 54.8375 140.962 52.5875 140.962 48.0875C140.962 46.5875 140.813 45.4875 140.514 44.7875C139.569 42.3875 138.176 41.1125 136.335 40.9625C135.34 40.8625 134.32 40.7875 133.276 40.7375C132.231 40.6375 131.186 40.5875 130.141 40.5875C129.395 40.4375 129.022 40.0375 129.022 39.3875V32.4125C129.022 31.7125 129.395 31.3375 130.141 31.2875C131.236 31.2375 132.33 31.1875 133.425 31.1375C134.519 31.0875 135.614 31.0125 136.708 30.9125C139.047 30.6625 140.216 29.1375 140.216 26.3375C140.216 23.9875 139.171 22.4125 137.081 21.6125C136.236 21.3625 134.843 21.2375 132.902 21.2375H130.141C128.649 21.4875 127.629 21.6125 127.082 21.6125Z" fill="#7C7D8D"/>
<path d="M168.77 22.4375L168.173 21.8375H157.8C157.054 21.8375 156.681 21.3875 156.681 20.4875V13.1375C156.681 12.3875 156.93 12.0125 157.427 12.0125H190.859C191.357 12.0125 191.606 12.3875 191.606 13.1375V20.4875C191.606 21.3875 191.357 21.8375 190.859 21.8375H180.039L179.516 22.4375V62.9375L178.173 64.0625H170.114L168.77 62.9375V22.4375Z" fill="#7C7D8D"/>
<path d="M205.153 22.4375L204.556 21.8375H194.183C193.437 21.8375 193.064 21.3875 193.064 20.4875V13.1375C193.064 12.3875 193.312 12.0125 193.81 12.0125H227.242C227.74 12.0125 227.988 12.3875 227.988 13.1375V20.4875C227.988 21.3875 227.74 21.8375 227.242 21.8375H216.421L215.899 22.4375V62.9375L214.556 64.0625H206.496L205.153 62.9375V22.4375Z" fill="#7C7D8D"/>
</svg>
