<svg width="57" height="57" viewBox="0 0 57 57" fill="none" xmlns="http://www.w3.org/2000/svg">
<path d="M56.6621 0H0V56.6621H56.6621V0Z" fill="#B4100D"/>
<path d="M47.5107 5.64462C46.2086 5.64462 45.2225 6.50851 44.7312 7.54667L37.5967 19.2924C37.102 20.3787 36.7409 21.599 36.7409 22.4069C36.7409 23.1288 36.8399 23.7666 37.1044 24.3544L44.8221 42.7914H14.8528C13.7739 42.7914 12.8836 41.7078 12.8836 40.7074V8.94858C12.6568 4.60688 6.41673 4.60921 6.2793 9.08498L6.41562 42.7914C6.41562 46.4559 9.24859 49.3917 12.8836 49.3917H53.7439L43.7845 23.9073C43.5096 22.9585 43.3871 22.0981 44.0571 20.9671L50.6463 10.252C50.739 10.0285 50.8735 9.08374 50.8735 8.81217C50.7429 6.86649 49.2183 5.55868 47.5107 5.64462ZM31.3332 5.65978C29.7305 5.67052 28.1295 6.77772 28.1295 8.94858V31.6746C28.1295 34.9747 23.6913 34.7032 23.6913 31.6746V8.94858C23.6913 4.60688 17.2688 4.60687 17.2688 8.94858V31.8565C17.2688 37.0954 21.1807 40.5786 25.8498 40.5786C30.6461 40.5786 34.5445 37.0954 34.5445 31.8565V8.94858C34.5445 6.73475 32.936 5.64903 31.3332 5.65978Z" fill="#F4F4F4"/>
</svg>
