<svg width="74" height="47" viewBox="0 0 74 47" fill="none" xmlns="http://www.w3.org/2000/svg">
<path d="M64.5078 11.6215H74L73.0508 16.6812H69.1748L68.2651 21.4643H71.706L70.8359 26.2473H67.395L63.7167 47H58.0609L64.5078 11.6215ZM62.4907 11.6215H56.7162L53.2357 30.2397C52.9984 31.5046 52.8006 32.2952 52.6424 32.6905C52.4447 33.0067 52.2074 33.1648 51.8119 33.1648C51.4955 33.1648 51.2977 33.0067 51.2582 32.73C51.2186 32.4138 51.2977 31.7023 51.4955 30.5955L55.0551 11.6215H49.2411L46.4329 26.603C45.9188 29.4491 45.5628 31.307 45.4837 32.2161C45.4441 33.1253 45.5628 33.9554 45.9188 34.7855C46.2352 35.6156 46.9075 36.2481 47.8172 36.7225C48.7664 37.2363 49.8343 37.513 51.179 37.513C52.4051 37.513 53.473 37.3154 54.4222 36.8806C55.411 36.4853 56.202 35.8133 56.914 35.0227C57.5863 34.1926 58.1005 33.402 58.3378 32.6114C58.6146 31.8604 58.8915 30.5164 59.287 28.5399L62.4907 11.6215ZM38.8787 27.9075C39.116 25.0219 39.4719 21.5433 40.0257 17.3137C38.5227 22.1362 37.4944 25.6148 36.9802 27.9075H38.8787ZM44.7718 11.6215L42.992 36.9596H37.6526L38.2063 32.3743H36.1892L34.9631 36.9596H29.2282L37.3362 11.6215H44.7718ZM32.7483 11.6215H27.8835L25.7873 23.0454L24.6403 11.6215H19.7755L15.0294 36.9596H19.8942L22.0299 25.4172L22.9001 36.9596H27.9626L32.7483 11.6215ZM17.2047 11.8192L12.419 23.2826L13.6056 36.9596H8.26617L7.27739 27.9075L5.5767 36.9596H0L5.814 0H11.3907L8.54303 20.1993L12.0631 11.7796L17.2047 11.8192Z" fill="#5699D7"/>
</svg>
