<svg width="40" height="40" viewBox="0 0 40 40" fill="none" xmlns="http://www.w3.org/2000/svg">
<path d="M20 25C22.7614 25 25 22.7614 25 20C25 17.2386 22.7614 15 20 15C17.2386 15 15 17.2386 15 20C15 22.7614 17.2386 25 20 25Z" stroke="#1F1F1F" stroke-width="2" stroke-miterlimit="10" stroke-linecap="round" stroke-linejoin="round"/>
<path d="M3 21.4917V18.5083C3 16.7454 4.44428 15.2876 6.22839 15.2876C9.30385 15.2876 10.5612 13.1178 9.01499 10.4565C8.13143 8.93092 8.65817 6.94763 10.2044 6.06617L13.1439 4.38801C14.4863 3.59131 16.2194 4.06594 17.018 5.40508L17.2049 5.72715C18.7341 8.38848 21.2489 8.38848 22.7951 5.72715L22.982 5.40508C23.7806 4.06594 25.5137 3.59131 26.8561 4.38801L29.7956 6.06617C31.3418 6.94763 31.8686 8.93092 30.985 10.4565C29.4388 13.1178 30.6962 15.2876 33.7716 15.2876C35.5387 15.2876 37 16.7284 37 18.5083V21.4917C37 23.2546 35.5557 24.7124 33.7716 24.7124C30.6962 24.7124 29.4388 26.8822 30.985 29.5435C31.8686 31.086 31.3418 33.0524 29.7956 33.9338L26.8561 35.612C25.5137 36.4087 23.7806 35.9341 22.982 34.5949L22.7951 34.2728C21.2659 31.6115 18.7511 31.6115 17.2049 34.2728L17.018 34.5949C16.2194 35.9341 14.4863 36.4087 13.1439 35.612L10.2044 33.9338C8.65817 33.0524 8.13143 31.0691 9.01499 29.5435C10.5612 26.8822 9.30385 24.7124 6.22839 24.7124C4.44428 24.7124 3 23.2546 3 21.4917Z" stroke="#1F1F1F" stroke-width="2" stroke-miterlimit="10" stroke-linecap="round" stroke-linejoin="round"/>
</svg>
